<svg width="535.823242" height="180.926758" viewBox="0 0 535.823 180.927" fill="none" xmlns="http://www.w3.org/2000/svg" xmlns:xlink="http://www.w3.org/1999/xlink">
	<desc>
			Created with Pixso.
	</desc>
	<defs/>
	<path id="Широкий ассортимент Одежды" d="M352.265 4.81475Q353.713 2.9108 353.836 -3.05176e-05L347.053 -3.05176e-05C346.815 2.00597 345.149 3.00897 342.055 3.00897C338.927 3.00897 337.244 2.00597 337.006 -3.05176e-05L330.274 -3.05176e-05Q330.398 2.91081 331.845 4.81475Q334.583 8.41497 342.055 8.41497Q349.528 8.41497 352.265 4.81475ZM167.185 28.968C167.185 34.748 169.276 39.27 173.458 42.534C177.64 45.798 183.454 47.43 190.9 47.43Q202.069 47.43 208.342 42.534Q210.786 40.6271 212.277 38.1478Q214.615 34.2613 214.615 28.968Q214.615 23.6747 212.277 19.7881Q210.786 17.3088 208.342 15.402C204.16 12.138 198.346 10.506 190.9 10.506Q179.731 10.506 173.458 15.402C169.276 18.666 167.185 23.188 167.185 28.968ZM3.77423 11.118L3.77423 46.818L63.2912 46.818L63.2912 11.118L52.9382 11.118L52.9382 38.148L38.7092 38.148L38.7092 11.118L28.3562 11.118L28.3562 38.148L14.1272 38.148L14.1272 11.118L3.77423 11.118ZM114.952 11.118L98.6322 11.118L82.2102 39.321L82.2102 11.118L71.8572 11.118L71.8572 46.818L88.1772 46.818L104.599 18.615L104.599 46.818L114.952 46.818L114.952 11.118ZM158.848 14.127C156.06 12.121 152.524 11.118 148.24 11.118L123.505 11.118L123.505 46.818L134.113 46.818L134.113 34.68L148.24 34.68C152.762 34.68 156.366 33.779 159.052 31.977C161.738 30.141 163.081 27.2 163.081 23.154C163.081 19.108 161.67 16.099 158.848 14.127ZM250.549 46.818L263.962 46.818L245.194 28.254L262.381 11.118L249.682 11.118L236.779 24.888L231.73 24.888L231.73 11.118L221.122 11.118L221.122 46.818L231.73 46.818L231.73 32.997L236.983 32.997L250.549 46.818ZM311.93 11.118L295.61 11.118L279.188 39.321L279.188 11.118L268.835 11.118L268.835 46.818L285.155 46.818L301.577 18.615L301.577 46.818L311.93 46.818L311.93 11.118ZM363.577 11.118L347.257 11.118L330.835 39.321L330.835 11.118L320.482 11.118L320.482 46.818L336.802 46.818L353.224 18.615L353.224 46.818L363.577 46.818L363.577 11.118ZM177.793 28.968C177.793 25.976 178.932 23.596 181.21 21.828C183.522 20.026 186.752 19.125 190.9 19.125C195.048 19.125 198.261 20.026 200.539 21.828Q202.152 23.0608 203.014 24.6904Q204.007 26.5663 204.007 28.968Q204.007 31.3313 203.046 33.1996Q202.181 34.8793 200.539 36.159C198.261 37.927 195.048 38.811 190.9 38.811C186.752 38.811 183.522 37.927 181.21 36.159C178.932 34.357 177.793 31.96 177.793 28.968ZM152.473 23.154C152.473 25.398 150.892 26.52 147.73 26.52L134.113 26.52L134.113 19.788L147.73 19.788C150.892 19.788 152.473 20.91 152.473 23.154ZM93.0238 97.17L82.7218 96.66C82.1438 98.19 80.9198 99.431 79.0498 100.383C77.2138 101.335 74.8168 101.811 71.8588 101.811C67.7448 101.811 64.5828 100.927 62.3728 99.159C60.1968 97.391 59.1088 94.994 59.1088 91.968C59.1088 88.976 60.1458 86.596 62.2198 84.828C64.3278 83.026 67.3198 82.125 71.1958 82.125C73.9158 82.125 76.2618 82.55 78.2338 83.4C80.2058 84.25 81.4808 85.372 82.0588 86.766L92.2588 86.103C91.4428 82.227 89.1988 79.167 85.5268 76.923C81.8548 74.645 77.0778 73.506 71.1958 73.506C64.0218 73.506 58.4458 75.138 54.4678 78.402Q52.4848 80.0121 51.1608 82.0504Q48.5008 86.1453 48.5008 91.968C48.5008 97.782 50.5408 102.321 54.6208 105.585Q60.7408 110.43 71.8588 110.43C78.0808 110.43 82.9768 109.308 86.5468 107.064C90.1508 104.82 92.3098 101.522 93.0238 97.17ZM141.434 97.17L131.132 96.66C130.554 98.19 129.33 99.431 127.46 100.383C125.624 101.335 123.227 101.811 120.269 101.811C116.155 101.811 112.993 100.927 110.783 99.159C108.607 97.391 107.519 94.994 107.519 91.968C107.519 88.976 108.556 86.596 110.63 84.828C112.738 83.026 115.73 82.125 119.606 82.125C122.326 82.125 124.672 82.55 126.644 83.4C128.616 84.25 129.891 85.372 130.469 86.766L140.669 86.103C139.853 82.227 137.609 79.167 133.937 76.923C130.265 74.645 125.488 73.506 119.606 73.506C112.432 73.506 106.856 75.138 102.878 78.402Q100.895 80.0121 99.5709 82.0504Q96.911 86.1453 96.911 91.968C96.911 97.782 98.951 102.321 103.031 105.585Q109.151 110.43 120.269 110.43C126.491 110.43 131.387 109.308 134.957 107.064C138.561 104.82 140.72 101.522 141.434 97.17ZM145.321 91.968C145.321 97.748 147.412 102.27 151.594 105.534C155.776 108.798 161.59 110.43 169.036 110.43C176.482 110.43 182.296 108.798 186.478 105.534C190.66 102.27 192.751 97.748 192.751 91.968Q192.751 86.6747 190.413 82.7881Q188.921 80.3088 186.478 78.402C182.296 75.138 176.482 73.506 169.036 73.506C161.59 73.506 155.776 75.138 151.594 78.402C147.412 81.666 145.321 86.188 145.321 91.968ZM33.9662 102.933L36.8732 109.818L47.6852 109.818L31.9772 74.118L15.6572 74.118L0.000234425 109.818L10.4552 109.818L13.3622 102.933L33.9662 102.933ZM234.601 77.127C231.813 75.121 228.277 74.118 223.993 74.118L199.258 74.118L199.258 109.818L209.866 109.818L209.866 97.68L223.993 97.68C228.515 97.68 232.119 96.779 234.805 94.977C237.491 93.141 238.834 90.2 238.834 86.154C238.834 82.108 237.423 79.099 234.601 77.127ZM241.719 74.118L241.719 82.788L256.764 82.788L256.764 109.818L267.372 109.818L267.372 82.788L282.417 82.788L282.417 74.118L241.719 74.118ZM331.005 74.118L314.685 74.118L298.263 102.321L298.263 74.118L287.91 74.118L287.91 109.818L304.23 109.818L320.652 81.615L320.652 109.818L331.005 109.818L331.005 74.118ZM395.351 74.118L376.787 74.118L367.556 103.596L358.121 74.118L339.557 74.118L339.557 109.818L349.706 109.818L349.706 79.881L360.263 109.818L374.594 109.818L385.151 79.881L385.151 109.818L395.3 109.818L395.351 74.118ZM403.905 74.118L403.905 109.818L441.237 109.818L441.237 101.556L414.513 101.556L414.513 95.538L434.607 95.538L434.607 87.786L414.513 87.786L414.513 82.38L440.268 82.38L440.268 74.118L403.905 74.118ZM489.601 74.118L478.993 74.118L478.993 87.327L458.491 87.327L458.491 74.118L447.883 74.118L447.883 109.818L458.491 109.818L458.491 95.997L478.993 95.997L478.993 109.818L489.601 109.818L489.601 74.118ZM495.125 74.118L495.125 82.788L510.17 82.788L510.17 109.818L520.778 109.818L520.778 82.788L535.823 82.788L535.823 74.118L495.125 74.118ZM30.6002 94.977L16.7792 94.977L23.6642 78.657L30.6002 94.977ZM155.929 91.968C155.929 88.976 157.068 86.596 159.346 84.828C161.658 83.026 164.888 82.125 169.036 82.125C173.184 82.125 176.397 83.026 178.675 84.828C180.987 86.596 182.143 88.976 182.143 91.968C182.143 94.96 180.987 97.357 178.675 99.159C176.397 100.927 173.184 101.811 169.036 101.811C164.888 101.811 161.658 100.927 159.346 99.159C157.068 97.357 155.929 94.96 155.929 91.968ZM228.226 86.154C228.226 88.398 226.645 89.52 223.483 89.52L209.866 89.52L209.866 82.788L223.483 82.788C226.645 82.788 228.226 83.91 228.226 86.154ZM4.07248 164.148Q5.56409 166.627 8.00723 168.534C12.1892 171.798 18.0032 173.43 25.4492 173.43C32.8952 173.43 38.7092 171.798 42.8912 168.534Q45.3344 166.627 46.826 164.148Q49.1642 160.261 49.1642 154.968C49.1642 149.188 47.0732 144.666 42.8912 141.402C38.7092 138.138 32.8952 136.506 25.4492 136.506C18.0032 136.506 12.1892 138.138 8.00723 141.402C3.82523 144.666 1.73423 149.188 1.73423 154.968Q1.73423 160.261 4.07248 164.148ZM99.1833 164.148L94.4403 164.148L94.4403 137.118L60.1683 137.118Q59.8113 149.97 58.5873 156.09C57.8053 160.17 56.7853 162.856 55.5273 164.148L51.2943 164.148L51.2943 180.927L61.2393 180.927L61.2393 172.818L89.2383 172.818L89.2383 180.927L99.1833 180.927L99.1833 164.148ZM104.081 137.118L104.081 172.818L141.413 172.818L141.413 164.556L114.689 164.556L114.689 158.538L134.783 158.538L134.783 150.786L114.689 150.786L114.689 145.38L140.444 145.38L140.444 137.118L104.081 137.118ZM202.322 172.818L215.582 172.818L198.089 154.305L214.766 137.118L202.067 137.118L190.082 150.888L185.135 150.888L185.135 137.118L174.833 137.118L174.833 150.888L169.937 150.888L157.901 137.118L145.202 137.118L161.879 154.305L144.386 172.818L157.646 172.818L170.039 159.048L174.833 159.048L174.833 172.818L185.135 172.818L185.135 159.048L189.98 159.048L202.322 172.818ZM264.385 164.148L259.642 164.148L259.642 137.118L225.37 137.118C225.132 145.686 224.605 152.01 223.789 156.09C223.007 160.17 221.987 162.856 220.729 164.148L216.496 164.148L216.496 180.927L226.441 180.927L226.441 172.818L254.44 172.818L254.44 180.927L264.385 180.927L264.385 164.148ZM303.351 152.112C300.631 150.208 297.044 149.256 292.59 149.256L279.891 149.256L279.891 137.118L269.283 137.118L269.283 172.818L292.59 172.818C297.078 172.818 300.665 171.883 303.351 170.013C306.071 168.109 307.431 165.134 307.431 161.088C307.431 157.008 306.071 154.016 303.351 152.112ZM323.292 137.118L312.684 137.118L312.684 172.818L323.292 172.818L323.292 137.118ZM12.3422 154.968C12.3422 151.976 13.4812 149.596 15.7592 147.828C18.0712 146.026 21.3012 145.125 25.4492 145.125C29.5972 145.125 32.8102 146.026 35.0882 147.828C37.4002 149.596 38.5562 151.976 38.5562 154.968C38.5562 157.96 37.4002 160.357 35.0882 162.159C32.8102 163.927 29.5972 164.811 25.4492 164.811C21.3012 164.811 18.0712 163.927 15.7592 162.159Q14.1841 160.913 13.335 159.288Q12.3422 157.387 12.3422 154.968ZM83.8323 145.788L83.8323 164.148L65.6253 164.148C66.3733 162.788 67.1043 160.697 67.8183 157.875C68.6003 154.917 69.2293 150.888 69.7053 145.788L83.8323 145.788ZM249.034 145.788L249.034 164.148L230.827 164.148C231.575 162.788 232.306 160.697 233.02 157.875C233.802 154.917 234.431 150.888 234.907 145.788L249.034 145.788ZM296.823 160.884C296.823 163.06 295.242 164.148 292.08 164.148L279.891 164.148L279.891 157.62L292.08 157.62C295.242 157.62 296.823 158.708 296.823 160.884Z" fill="#171819" fill-opacity="1.000000" fill-rule="evenodd"/>
</svg>
