<svg width="83.968750" height="34.356445" viewBox="0 0 83.9688 34.3564" fill="none" xmlns="http://www.w3.org/2000/svg" xmlns:xlink="http://www.w3.org/1999/xlink">
	<desc>
			Created with Pixso.
	</desc>
	<defs/>
	<path id="Vector" d="M3.18164 17.2427L0.00976562 0.257812C-0.000976562 0.226074 -0.00292969 0.192383 0.00390625 0.159668C0.00976562 0.126953 0.0244141 0.0966797 0.0458984 0.0712891C0.0673828 0.0454102 0.0947266 0.0258789 0.125 0.0136719C0.15625 0.00146484 0.189453 -0.00244141 0.222656 0.00146484L5.28418 0.00146484C5.34668 -0.00341797 5.4082 0.0161133 5.45605 0.0561523C5.50488 0.0961914 5.53516 0.152832 5.54199 0.214844L7.21387 11.666L8.06738 11.666L9.74023 0.214844C9.74707 0.152832 9.77734 0.0957031 9.8252 0.0556641C9.87402 0.015625 9.93555 -0.00341797 9.99805 0.00146484L15.0586 0.00146484C15.0908 -0.00244141 15.125 0.00195312 15.1553 0.0141602C15.1865 0.0258789 15.2139 0.0458984 15.2354 0.0712891C15.2568 0.0966797 15.2715 0.126953 15.2783 0.159668C15.2842 0.192383 15.2832 0.226074 15.2734 0.257812L12.4844 17.2427L15.2734 34.0972C15.2832 34.1289 15.2852 34.1631 15.2783 34.1958C15.2725 34.2285 15.2578 34.2593 15.2363 34.2847C15.2148 34.3105 15.1875 34.3301 15.1562 34.3423C15.125 34.3545 15.0918 34.3589 15.0586 34.3545L10.002 34.3545C9.93945 34.3599 9.87793 34.3403 9.8291 34.2998C9.78125 34.2598 9.75098 34.2021 9.74414 34.1401L8.07129 22.689L7.21777 22.689L5.5459 34.1401C5.54004 34.2021 5.50977 34.2593 5.46094 34.2998C5.41309 34.3398 5.35156 34.3594 5.28906 34.3545L0.229492 34.3545C0.197266 34.3584 0.163086 34.354 0.132812 34.3418C0.101562 34.3296 0.0742188 34.3096 0.0527344 34.2842C0.0322266 34.2583 0.0175781 34.228 0.0107422 34.1953C0.00488281 34.1626 0.00683594 34.1289 0.0166016 34.0972L3.18164 17.2427Z" fill="#49D0FF" fill-opacity="1.000000" fill-rule="evenodd"/>
	<path id="Vector" d="M16.6699 0.214844C16.6689 0.186523 16.6729 0.157715 16.6836 0.131348C16.6934 0.104492 16.709 0.0805664 16.7295 0.0600586C16.749 0.0400391 16.7734 0.0244141 16.7998 0.0141602C16.8271 0.00390625 16.8555 -0.000488281 16.8838 0.00146484L22.0312 0.00146484C22.0596 0 22.0879 0.00439453 22.1143 0.0141602C22.1416 0.0244141 22.166 0.0400391 22.1855 0.0600586C22.2061 0.0800781 22.2217 0.104492 22.2324 0.131348C22.2422 0.157715 22.2471 0.186035 22.2461 0.214844L23.5742 19.3013L24.4277 19.3013L25.5518 0.214844C25.5518 0.0439453 25.6377 0.00146484 25.7666 0.00146484L29.627 0.00146484C29.7549 0.00146484 29.8418 0.0439453 29.8418 0.214844L30.958 19.3013L31.8115 19.3013L33.1416 0.214844C33.1406 0.186035 33.1445 0.157715 33.1553 0.130859C33.165 0.104004 33.1807 0.0800781 33.2012 0.0595703C33.2217 0.0395508 33.2461 0.0239258 33.2725 0.0136719C33.2998 0.00390625 33.3281 -0.000488281 33.3564 0.00146484L38.498 0.00146484C38.5264 -0.000488281 38.5557 0.00390625 38.582 0.0136719C38.6094 0.0239258 38.6338 0.0395508 38.6533 0.0595703C38.6738 0.0800781 38.6895 0.104004 38.7002 0.130859C38.71 0.157715 38.7148 0.186035 38.7129 0.214844L36.3555 34.0972C36.3574 34.126 36.3535 34.1543 36.3428 34.1816C36.333 34.2085 36.3174 34.2329 36.2969 34.2529C36.2764 34.2734 36.252 34.2891 36.2256 34.2993C36.1982 34.3096 36.1699 34.314 36.1406 34.312L29.1494 34.312C29.0215 34.312 28.9365 34.269 28.9365 34.0972L28.1211 20.5815L27.2676 20.5815L26.4521 34.0972C26.4521 34.269 26.3672 34.312 26.2373 34.312L19.2422 34.312C19.2139 34.3135 19.1855 34.3091 19.1582 34.2988C19.1318 34.2886 19.1074 34.2729 19.0869 34.2524C19.0674 34.2324 19.0518 34.208 19.041 34.1812C19.0312 34.1543 19.0273 34.1255 19.0293 34.0972L16.6699 0.214844Z" fill="#FFFFFF" fill-opacity="1.000000" fill-rule="nonzero"/>
	<path id="Vector" d="M45.9023 19.7295L45.9023 29.1646L51.2627 29.1646C51.291 29.1631 51.3203 29.1675 51.3467 29.1777C51.374 29.188 51.3975 29.2036 51.418 29.2236C51.4385 29.2441 51.4541 29.2686 51.4648 29.2954C51.4746 29.3223 51.4795 29.3506 51.4775 29.3794L51.4775 34.0972C51.4795 34.1255 51.4746 34.1543 51.4648 34.1812C51.4551 34.2085 51.4395 34.2329 51.4189 34.2529C51.3984 34.2734 51.374 34.2891 51.3467 34.2993C51.3203 34.3096 51.291 34.3135 51.2627 34.312L40.54 34.312C40.5117 34.3135 40.4824 34.3091 40.4561 34.2988C40.4297 34.2886 40.4053 34.2729 40.3848 34.2524C40.3643 34.2319 40.3486 34.208 40.3389 34.1812C40.3291 34.1543 40.3252 34.1255 40.3262 34.0972L40.3262 0.214844C40.3252 0.186035 40.3291 0.157715 40.3398 0.131348C40.3496 0.104492 40.3652 0.0800781 40.3857 0.0600586C40.4053 0.0400391 40.4297 0.0244141 40.4561 0.0141602C40.4834 0.00390625 40.5117 -0.000488281 40.54 0.00146484L50.834 0.00146484C50.8633 -0.000488281 50.8916 0.00390625 50.918 0.0141602C50.9443 0.0244141 50.9688 0.0400391 50.9893 0.0600586C51.0088 0.0800781 51.0244 0.104492 51.0352 0.131348C51.0449 0.157715 51.0498 0.186035 51.0479 0.214844L51.0479 4.93359C51.0498 4.9624 51.0449 4.99072 51.0352 5.01709C51.0244 5.04395 51.0088 5.06836 50.9893 5.08838C50.9688 5.1084 50.9443 5.12402 50.918 5.13428C50.8916 5.14453 50.8633 5.14893 50.834 5.14697L45.9023 5.14697L45.9023 14.582L49.9766 14.582C50.0049 14.5806 50.0332 14.5854 50.0605 14.5957C50.0869 14.606 50.1113 14.6216 50.1309 14.6421C50.1514 14.6621 50.167 14.6865 50.1768 14.7134C50.1875 14.7402 50.1914 14.7686 50.1904 14.7969L50.1904 19.5146C50.1914 19.543 50.1875 19.5718 50.1777 19.5986C50.168 19.6255 50.1523 19.6499 50.1318 19.6699C50.1113 19.6904 50.0869 19.7061 50.0605 19.7163C50.0342 19.7266 50.0049 19.731 49.9766 19.7295L45.9023 19.7295Z" fill="#FFFFFF" fill-opacity="1.000000" fill-rule="nonzero"/>
	<path id="Vector" d="M68.0771 34.0977C68.0771 34.2695 67.9912 34.3125 67.8633 34.3125L62.7168 34.3125C62.5879 34.3125 62.502 34.2695 62.502 34.0977L62.0752 25.5205L59.0713 25.5205L58.6445 34.0977C58.6445 34.2695 58.5596 34.3125 58.4297 34.3125L53.2812 34.3125C53.1514 34.3125 53.0664 34.2695 53.0664 34.0977L54.9541 0.215332C54.9541 0.0444336 55.04 0.00195312 55.168 0.00195312L65.9795 0.00195312C66.1094 0.00195312 66.1943 0.0444336 66.1943 0.215332L68.0771 34.0977ZM59.3721 20.373L61.7734 20.373L61.001 5.15039L60.1475 5.15039L59.3721 20.373Z" fill="#FFFFFF" fill-opacity="1.000000" fill-rule="nonzero"/>
	<path id="Vector" d="M83.7998 34.312L78.5674 34.312C78.5146 34.3047 78.4639 34.2856 78.4189 34.2559C78.375 34.2256 78.3379 34.186 78.3115 34.1396C77.7539 33.2861 77.7539 31.7808 77.7539 30.9673L77.8389 18.8745L75.2656 18.8745L75.2656 34.0972C75.2676 34.126 75.2627 34.1543 75.2529 34.1816C75.2432 34.2085 75.2266 34.2329 75.207 34.2529C75.1865 34.2734 75.1621 34.2891 75.1348 34.2993C75.1084 34.3096 75.0791 34.314 75.0508 34.312L69.9043 34.312C69.876 34.314 69.8477 34.3096 69.8203 34.2993C69.793 34.2891 69.7686 34.2734 69.749 34.2529C69.7285 34.2329 69.7129 34.2085 69.7021 34.1816C69.6924 34.1543 69.6885 34.126 69.6895 34.0972L69.6895 0.214844C69.6885 0.186035 69.6924 0.157715 69.7031 0.130859C69.7129 0.104004 69.7285 0.0800781 69.749 0.0595703C69.7695 0.0395508 69.7939 0.0239258 69.8203 0.0136719C69.8477 0.00390625 69.876 -0.000488281 69.9043 0.00146484L79.125 0.00146484C82.5566 0.00146484 83.4141 2.57373 83.4141 6.86279L83.4141 12.7812C83.4141 15.0972 82.084 15.7847 81.3984 15.8696L81.3984 16.7236C82.041 16.8086 83.4141 17.4946 83.4141 19.8105L83.4141 30.9629C83.4141 31.6914 83.4141 33.1924 83.9297 34.0503C83.9502 34.0737 83.9629 34.1025 83.9678 34.1338C83.9717 34.1646 83.9658 34.1963 83.9521 34.2241C83.9385 34.2524 83.917 34.2759 83.8896 34.291C83.8623 34.3066 83.8311 34.314 83.7998 34.312ZM77.8389 13.7261L77.8389 5.14697L75.2656 5.14697L75.2656 13.7261L77.8389 13.7261Z" fill="#FFFFFF" fill-opacity="1.000000" fill-rule="nonzero"/>
</svg>
