<svg width="16.599609" height="19.600098" viewBox="0 0 16.5996 19.6001" fill="none" xmlns="http://www.w3.org/2000/svg" xmlns:xlink="http://www.w3.org/1999/xlink">
	<desc>
			Created with Pixso.
	</desc>
	<defs/>
	<path d="M8.2998 1.6001C7.73926 1.6001 7.19824 1.82715 6.79688 2.23779C6.39453 2.64941 6.16602 3.21094 6.16602 3.7998L6.16602 5L10.4336 5L10.4336 3.7998C10.4336 3.21094 10.2041 2.64941 9.80176 2.23779C9.40039 1.82715 8.85938 1.6001 8.2998 1.6001ZM12.0332 5L12.0332 3.7998C12.0332 2.79785 11.6436 1.8335 10.9463 1.11914C10.2471 0.404785 9.2959 0 8.2998 0C7.30371 0 6.35156 0.404785 5.65332 1.11914C4.95508 1.8335 4.56543 2.79785 4.56543 3.7998L4.56543 5L2.75586 5L12.0332 5ZM4.56543 6.6001L2.75586 6.6001C2.5918 6.6001 2.42969 6.63623 2.2793 6.70654C2.12891 6.77734 1.99414 6.88086 1.88477 7.01172C1.77441 7.14258 1.69238 7.29736 1.64551 7.46582C1.59863 7.63428 1.58789 7.81152 1.61426 7.98486L2.84082 16.1367C2.91992 16.6606 3.17871 17.1353 3.56641 17.4756C3.9541 17.8154 4.44434 18 4.94922 18L11.6494 18C12.1543 18 12.6455 17.8154 13.0332 17.4756C13.4209 17.1353 13.6797 16.6611 13.7588 16.1372L14.9863 7.98486C15.0127 7.81152 15.001 7.63428 14.9541 7.46582C14.9072 7.29736 14.8252 7.14258 14.7158 7.01172C14.6055 6.88086 14.4707 6.77734 14.3203 6.70654C14.1709 6.63623 14.0078 6.6001 13.8438 6.6001L12.0332 6.6001L12.0332 8.7998C12.0332 9.2417 11.6748 9.6001 11.2334 9.6001C10.791 9.6001 10.4336 9.2417 10.4336 8.7998L10.4336 6.6001L6.16602 6.6001L6.16602 8.7998C6.16602 9.2417 5.80762 9.6001 5.36621 9.6001C4.92383 9.6001 4.56543 9.2417 4.56543 8.7998L4.56543 6.6001ZM12.0332 5L13.8438 5C14.2441 5 14.6387 5.08838 15.001 5.25879C15.3633 5.42871 15.6836 5.67627 15.9414 5.9834C16.1992 6.29004 16.3877 6.64941 16.4951 7.03516C16.6035 7.42139 16.6279 7.82666 16.5684 8.22314L15.3408 16.375C15.207 17.2676 14.7637 18.0854 14.0879 18.6787C13.4111 19.272 12.5469 19.6001 11.6494 19.6001L4.94922 19.6001C4.05273 19.6001 3.1875 19.2715 2.51172 18.6782C1.83594 18.0854 1.39355 17.2676 1.25879 16.375L0.03125 8.22314C-0.0283203 7.82666 -0.00292969 7.42139 0.104492 7.03516C0.212891 6.64941 0.401367 6.29004 0.658203 5.9834C0.916016 5.67627 1.23633 5.42871 1.59863 5.25879C1.96094 5.08838 2.35645 5 2.75586 5L12.0332 5Z" fill="#FFFFFF" fill-opacity="1.000000" fill-rule="evenodd"/>
</svg>
